<?xml version="1.0" encoding="iso-8859-1"?>
<!-- Generator: Adobe Illustrator 18.0.0, SVG Export Plug-In . SVG Version: 6.00 Build 0)  -->
<!DOCTYPE svg PUBLIC "-//W3C//DTD SVG 1.1//EN" "http://www.w3.org/Graphics/SVG/1.1/DTD/svg11.dtd">
<svg version="1.1" id="Capa_1" xmlns="http://www.w3.org/2000/svg" xmlns:xlink="http://www.w3.org/1999/xlink" x="0px" y="0px"
	 viewBox="0 0 476.788 476.788" style="enable-background:new 0 0 476.788 476.788;" xml:space="preserve">
<g>
	<path d="M73.635,248.441c-28.85-10.094-60.422,5.101-70.516,33.953c-10.094,28.85,5.117,60.421,33.967,70.515
		c28.842,10.094,191.003,40.592,201.097,11.742C248.277,335.801,102.485,258.535,73.635,248.441z"/>
	<path d="M434.379,261.305c-29.713-7.156-194.105-21.261-201.267,8.46c-7.146,29.705,145.659,91.979,175.372,99.117
		c29.713,7.17,59.598-11.119,66.752-40.84C482.397,298.334,464.092,268.443,434.379,261.305z"/>
	<path d="M221.362,223.481c34.091,0,61.729-27.638,61.729-61.729c0-34.077-27.638-61.713-61.729-61.713
		c-34.083,0-61.721,27.636-61.721,61.713C159.641,195.843,187.279,223.481,221.362,223.481z M175.17,161.752
		c0-25.475,20.724-46.192,46.192-46.192c4.402,0,7.963,3.561,7.963,7.963c0,4.402-3.561,7.963-7.963,7.963
		c-16.687,0-30.266,13.577-30.266,30.266c0,4.4-3.561,7.963-7.963,7.963C178.733,169.715,175.17,166.152,175.17,161.752z"/>
</g>
<g>
</g>
<g>
</g>
<g>
</g>
<g>
</g>
<g>
</g>
<g>
</g>
<g>
</g>
<g>
</g>
<g>
</g>
<g>
</g>
<g>
</g>
<g>
</g>
<g>
</g>
<g>
</g>
<g>
</g>
</svg>
