<svg xmlns="http://www.w3.org/2000/svg" viewBox="0 0 400 300" width="400" height="300">
  <defs>
    <linearGradient id="arcadeBg" x1="0%" y1="0%" x2="100%" y2="100%">
      <stop offset="0%" style="stop-color:#556ed9;stop-opacity:1"/>
      <stop offset="100%" style="stop-color:#70459b;stop-opacity:1"/>
    </linearGradient>
    <filter id="cabShadow">
      <feDropShadow dx="0" dy="8" stdDeviation="10" flood-opacity="0.22"/>
    </filter>
    <filter id="titleShadow">
      <feDropShadow dx="0" dy="4" stdDeviation="3.2" flood-color="#334155" flood-opacity="0.72"/>
    </filter>
    <filter id="textShadow">
      <feDropShadow dx="0" dy="2" stdDeviation="2.1" flood-color="#475569" flood-opacity="0.65"/>
    </filter>
  </defs>

  <rect width="400" height="300" fill="url(#arcadeBg)"/>
  <circle cx="54" cy="48" r="78" fill="rgba(0,0,0,0.10)"/>
  <circle cx="348" cy="252" r="96" fill="rgba(0,0,0,0.10)"/>

  <g transform="translate(110, 42)" filter="url(#cabShadow)">
    <path d="M38 22h86l28 44v120c0 10-8 18-18 18H58c-10 0-18-8-18-18V40c0-10 8-18 18-18z" fill="#1b2232"/>
    <path d="M124 22l28 44h-34c-9 0-16-7-16-16V22h22z" fill="#2f3a54"/>
    <rect x="56" y="44" width="72" height="58" rx="8" fill="#101827"/>
    <rect x="62" y="50" width="60" height="46" rx="6" fill="#45a3ff" opacity="0.78"/>
    <path d="M68 86c8-10 18-18 28-24 7 5 17 13 24 24" fill="none" stroke="#111827" stroke-width="5" stroke-linecap="round"/>
    <path d="M58 122h72l10 34H48l10-34z" fill="#3d4d68"/>
    <circle cx="74" cy="138" r="10" fill="#d94f4f"/>
    <circle cx="104" cy="132" r="6" fill="#f59e0b"/>
    <circle cx="120" cy="144" r="6" fill="#22c55e"/>
    <circle cx="136" cy="132" r="6" fill="#60a5fa"/>
    <rect x="84" y="164" width="24" height="34" rx="10" fill="#111827"/>
    <rect x="90" y="150" width="12" height="22" rx="6" fill="#111827"/>
    <circle cx="96" cy="144" r="10" fill="#ef4444"/>
    <path d="M56 204h80" stroke="#0f172a" stroke-width="10" stroke-linecap="round"/>
  </g>

  <text x="200" y="248" font-family="Arial, sans-serif" font-size="34" font-weight="bold" fill="#f8fafc" filter="url(#titleShadow)" text-anchor="middle">ARCADE</text>
  <text x="200" y="272" font-family="Arial, sans-serif" font-size="16" fill="rgba(248,250,252,0.94)" filter="url(#textShadow)" text-anchor="middle">Arcade and gameroom builds</text>
</svg>
