<svg xmlns="http://www.w3.org/2000/svg" viewBox="0 0 400 300">
  <defs>
    <linearGradient id="bg" x1="0%" y1="0%" x2="100%" y2="100%">
      <stop offset="0%" style="stop-color:#667eea;stop-opacity:1"/>
      <stop offset="100%" style="stop-color:#764ba2;stop-opacity:1"/>
    </linearGradient>
  </defs>
  
  <rect width="400" height="300" fill="url(#bg)"/>
  
  <circle cx="50" cy="50" r="80" fill="rgba(255,255,255,0.1)"/>
  <circle cx="350" cy="250" r="100" fill="rgba(255,255,255,0.1)"/>
  
  <g transform="translate(80, 70)">
    <rect x="0" y="0" width="240" height="140" rx="8" fill="#2d3748" opacity="0.9"/>
    <rect x="10" y="10" width="220" height="100" rx="5" fill="#1a202c"/>
    
    <rect x="30" y="30" width="60" height="60" rx="3" fill="#4299e1" opacity="0.8"/>
    <rect x="100" y="30" width="60" height="60" rx="3" fill="#48bb78" opacity="0.8"/>
    <rect x="170" y="30" width="60" height="60" rx="3" fill="#ed8936" opacity="0.8"/>
    
    <circle cx="60" cy="60" r="5" fill="#fff" opacity="0.9"/>
    <circle cx="130" cy="60" r="5" fill="#fff" opacity="0.9"/>
    <circle cx="200" cy="60" r="5" fill="#fff" opacity="0.9"/>
    
    <rect x="20" y="120" width="200" height="8" rx="4" fill="#e2e8f0" opacity="0.8"/>
  </g>
  
  <g transform="translate(150, 90)">
    <circle cx="0" cy="0" r="3" fill="#ffd700"/>
    <circle cx="15" cy="5" r="3" fill="#ffd700"/>
    <circle cx="-10" cy="8" r="3" fill="#ffd700"/>
    <circle cx="20" cy="-5" r="3" fill="#ffd700"/>
  </g>
  
  <text x="200" y="245" font-family="Arial, sans-serif" font-size="36" font-weight="bold" fill="#fff" text-anchor="middle">ARCADE</text>
  <text x="200" y="270" font-family="Arial, sans-serif" font-size="16" fill="rgba(255,255,255,0.9)" text-anchor="middle">Game Room Essentials</text>
</svg>
