<svg xmlns="http://www.w3.org/2000/svg" viewBox="0 0 400 300" width="400" height="300">
  <defs>
    <linearGradient id="topperBg" x1="0%" y1="0%" x2="100%" y2="100%">
      <stop offset="0%" style="stop-color:#5967c9;stop-opacity:1" />
      <stop offset="100%" style="stop-color:#6f4a92;stop-opacity:1" />
    </linearGradient>
    <filter id="shadow">
      <feDropShadow dx="0" dy="6" stdDeviation="10" flood-opacity="0.24"/>
    </filter>
    <filter id="titleShadow">
      <feDropShadow dx="0" dy="4" stdDeviation="3.2" flood-color="#334155" flood-opacity="0.72"/>
    </filter>
    <filter id="textShadow">
      <feDropShadow dx="0" dy="2" stdDeviation="2.1" flood-color="#475569" flood-opacity="0.65"/>
    </filter>
  </defs>

  <rect width="400" height="300" fill="url(#topperBg)"/>
  <circle cx="58" cy="56" r="72" fill="rgba(0,0,0,0.10)"/>
  <circle cx="336" cy="238" r="94" fill="rgba(0,0,0,0.12)"/>

  <g transform="translate(92, 40)" filter="url(#shadow)">
    <g transform="translate(50, 0)">
      <path d="M22 34h104c9 0 16 7 16 16v16H6V50c0-9 7-16 16-16z" fill="#d8dde8"/>
      <rect x="18" y="20" width="112" height="18" rx="9" fill="#9eb1d2"/>
      <path d="M30 30l12 8 12-8 12 8 12-8 12 8 12-8 12 8" fill="none" stroke="#334155" stroke-width="4" stroke-linecap="round" stroke-linejoin="round"/>
    </g>

    <g transform="translate(0, 58)">
      <rect x="56" y="0" width="136" height="92" rx="12" fill="#1b2232"/>
      <rect x="68" y="12" width="112" height="56" rx="8" fill="#2f3a54"/>
      <rect x="76" y="20" width="96" height="40" rx="6" fill="#0f172a"/>
      <path d="M72 78h104" stroke="#55637c" stroke-width="6" stroke-linecap="round"/>
      <circle cx="92" cy="78" r="6" fill="#dc5a57"/>
      <circle cx="156" cy="78" r="6" fill="#dc5a57"/>

      <path d="M74 94h100l18 58H56l18-58z" fill="#344256"/>
      <path d="M92 108l20 16M156 108l-20 16" stroke="#0f172a" stroke-width="8" stroke-linecap="round"/>
      <path d="M102 144h44" stroke="#0f172a" stroke-width="8" stroke-linecap="round"/>
      <path d="M82 152l-10 30M166 152l10 30" stroke="#0f172a" stroke-width="8" stroke-linecap="round"/>
    </g>
  </g>

  <text x="200" y="248" font-family="Arial, sans-serif" font-size="34" font-weight="bold" fill="#f8fafc" filter="url(#titleShadow)" text-anchor="middle">TOPPERS</text>
  <text x="200" y="272" font-family="Arial, sans-serif" font-size="16" fill="rgba(248,250,252,0.94)" filter="url(#textShadow)" text-anchor="middle">Backbox topper builds</text>
</svg>
